<svg viewBox="0 0 14 14" aria-hidden="true" xmlns="http://www.w3.org/2000/svg"><path d="M4.95 12.94a3.8 3.8 0 0 1-2.67-1.96 4 4 0 0 1-.37-2.12 3.9 3.9 0 0 1 1.92-3.04 3.4 3.4 0 0 1 2-.39l.35.05v2.15l-.34-.02c-.8-.03-1.4.31-1.7.98-.15.32-.18.9-.08 1.24.13.43.5.81.96.98.16.06.32.08.61.08.36 0 .43-.01.68-.13q.55-.26.79-.74c.1-.21.13-.35.16-.7.02-.24.04-2.21.04-4.38V1H8c.37 0 .83.01 1 .03l.32.02v.16c0 .38.22 1.12.45 1.48a4 4 0 0 0 .45.5c.36.36.66.54 1.13.67l.32.11q.08.04.17.04l.19.03.1.02v2l-.18-.03a5 5 0 0 1-2.35-.78c-.3-.2-.33-.22-.3-.14.01.03 0 1.12-.01 2.43-.04 2.28-.04 2.4-.13 2.72a3.6 3.6 0 0 1-2.1 2.5c-.62.24-1.4.3-2.1.18"/></svg>
